<mxfile host="app.diagrams.net" modified="2021-12-31T04:32:02.594Z" agent="5.0 (Windows NT 10.0; Win64; x64) AppleWebKit/537.36 (KHTML, like Gecko) Chrome/96.0.4664.110 Safari/537.36 Edg/96.0.1054.62" etag="pakGoM0unszHNfBp8mzk" version="16.1.0" type="github" pages="2">
  <diagram id="oG_Hy-zvtwRr0csXsR83" name="服务器端结构">
    <mxGraphModel dx="2756" dy="1000" grid="1" gridSize="10" guides="1" tooltips="1" connect="1" arrows="1" fold="1" page="1" pageScale="1" pageWidth="827" pageHeight="1169" math="0" shadow="0">
      <root>
        <mxCell id="0" />
        <mxCell id="1" parent="0" />
        <mxCell id="4yhZJhOrAPvXMS8r5TzF-34" value="" style="rounded=0;whiteSpace=wrap;html=1;dashed=1;fontSize=20;strokeColor=default;" vertex="1" parent="1">
          <mxGeometry x="-180" y="30" width="750" height="210" as="geometry" />
        </mxCell>
        <mxCell id="4yhZJhOrAPvXMS8r5TzF-32" value="" style="rounded=0;whiteSpace=wrap;html=1;dashed=1;fontSize=20;strokeColor=default;" vertex="1" parent="1">
          <mxGeometry x="-210" y="280" width="1530" height="320" as="geometry" />
        </mxCell>
        <mxCell id="4yhZJhOrAPvXMS8r5TzF-7" style="edgeStyle=orthogonalEdgeStyle;rounded=0;orthogonalLoop=1;jettySize=auto;html=1;exitX=0.25;exitY=0;exitDx=0;exitDy=0;fontSize=20;startArrow=none;startFill=0;strokeWidth=5;entryX=0.5;entryY=1;entryDx=0;entryDy=0;" edge="1" parent="1" source="wnf2VfuJf94anjGbQvdZ-6" target="wnf2VfuJf94anjGbQvdZ-2">
          <mxGeometry relative="1" as="geometry">
            <mxPoint x="400" y="600" as="targetPoint" />
            <Array as="points" />
          </mxGeometry>
        </mxCell>
        <mxCell id="4yhZJhOrAPvXMS8r5TzF-8" value="连接请求" style="edgeLabel;html=1;align=center;verticalAlign=middle;resizable=0;points=[];fontSize=20;" vertex="1" connectable="0" parent="4yhZJhOrAPvXMS8r5TzF-7">
          <mxGeometry x="-0.2632" y="-1" relative="1" as="geometry">
            <mxPoint as="offset" />
          </mxGeometry>
        </mxCell>
        <mxCell id="4yhZJhOrAPvXMS8r5TzF-9" style="edgeStyle=orthogonalEdgeStyle;rounded=0;orthogonalLoop=1;jettySize=auto;html=1;exitX=1;exitY=0.25;exitDx=0;exitDy=0;entryX=0;entryY=0.25;entryDx=0;entryDy=0;fontSize=20;startArrow=none;startFill=0;strokeWidth=5;" edge="1" parent="1" source="wnf2VfuJf94anjGbQvdZ-2" target="wnf2VfuJf94anjGbQvdZ-3">
          <mxGeometry relative="1" as="geometry" />
        </mxCell>
        <mxCell id="4yhZJhOrAPvXMS8r5TzF-10" value="创建" style="edgeLabel;html=1;align=center;verticalAlign=middle;resizable=0;points=[];fontSize=20;" vertex="1" connectable="0" parent="4yhZJhOrAPvXMS8r5TzF-9">
          <mxGeometry x="0.2625" y="2" relative="1" as="geometry">
            <mxPoint as="offset" />
          </mxGeometry>
        </mxCell>
        <mxCell id="4yhZJhOrAPvXMS8r5TzF-20" style="edgeStyle=orthogonalEdgeStyle;rounded=0;orthogonalLoop=1;jettySize=auto;html=1;exitX=0;exitY=0.75;exitDx=0;exitDy=0;entryX=1;entryY=0.75;entryDx=0;entryDy=0;fontSize=20;startArrow=none;startFill=0;strokeWidth=5;fillColor=#d5e8d4;strokeColor=#82b366;" edge="1" parent="1" source="wnf2VfuJf94anjGbQvdZ-2" target="oRRDKivhvVMNvXGFLit--1">
          <mxGeometry relative="1" as="geometry" />
        </mxCell>
        <mxCell id="4yhZJhOrAPvXMS8r5TzF-21" value="请求数据" style="edgeLabel;html=1;align=center;verticalAlign=middle;resizable=0;points=[];fontSize=20;" vertex="1" connectable="0" parent="4yhZJhOrAPvXMS8r5TzF-20">
          <mxGeometry x="0.2683" y="3" relative="1" as="geometry">
            <mxPoint as="offset" />
          </mxGeometry>
        </mxCell>
        <mxCell id="4yhZJhOrAPvXMS8r5TzF-24" style="edgeStyle=orthogonalEdgeStyle;rounded=0;orthogonalLoop=1;jettySize=auto;html=1;exitX=1;exitY=0.5;exitDx=0;exitDy=0;entryX=0;entryY=0.5;entryDx=0;entryDy=0;fontSize=20;startArrow=none;startFill=0;strokeWidth=5;fillColor=#f8cecc;strokeColor=#b85450;" edge="1" parent="1" source="wnf2VfuJf94anjGbQvdZ-2" target="wnf2VfuJf94anjGbQvdZ-3">
          <mxGeometry relative="1" as="geometry" />
        </mxCell>
        <mxCell id="4yhZJhOrAPvXMS8r5TzF-25" value="响应数据" style="edgeLabel;html=1;align=center;verticalAlign=middle;resizable=0;points=[];fontSize=20;" vertex="1" connectable="0" parent="4yhZJhOrAPvXMS8r5TzF-24">
          <mxGeometry x="0.3028" y="-4" relative="1" as="geometry">
            <mxPoint as="offset" />
          </mxGeometry>
        </mxCell>
        <mxCell id="wnf2VfuJf94anjGbQvdZ-2" value="&lt;span style=&quot;font-size: 20px&quot;&gt;server&lt;br&gt;&lt;/span&gt;" style="rounded=0;whiteSpace=wrap;html=1;" parent="1" vertex="1">
          <mxGeometry x="330" y="450" width="130" height="90" as="geometry" />
        </mxCell>
        <mxCell id="wnf2VfuJf94anjGbQvdZ-25" style="edgeStyle=orthogonalEdgeStyle;rounded=0;orthogonalLoop=1;jettySize=auto;html=1;entryX=0.5;entryY=1;entryDx=0;entryDy=0;fontSize=20;exitX=0.5;exitY=0;exitDx=0;exitDy=0;" parent="1" source="wnf2VfuJf94anjGbQvdZ-3" target="wnf2VfuJf94anjGbQvdZ-13" edge="1">
          <mxGeometry relative="1" as="geometry">
            <Array as="points">
              <mxPoint x="710" y="360" />
              <mxPoint x="790" y="360" />
            </Array>
          </mxGeometry>
        </mxCell>
        <mxCell id="4yhZJhOrAPvXMS8r5TzF-14" style="edgeStyle=orthogonalEdgeStyle;rounded=0;orthogonalLoop=1;jettySize=auto;html=1;exitX=1;exitY=0.75;exitDx=0;exitDy=0;entryX=0;entryY=0.75;entryDx=0;entryDy=0;fontSize=20;startArrow=none;startFill=0;strokeWidth=5;fillColor=#f5f5f5;strokeColor=#666666;" edge="1" parent="1" source="wnf2VfuJf94anjGbQvdZ-3" target="GOlorQ2MwcxbbiScanlw-1">
          <mxGeometry relative="1" as="geometry" />
        </mxCell>
        <mxCell id="4yhZJhOrAPvXMS8r5TzF-15" value="请求包" style="edgeLabel;html=1;align=center;verticalAlign=middle;resizable=0;points=[];fontSize=20;" vertex="1" connectable="0" parent="4yhZJhOrAPvXMS8r5TzF-14">
          <mxGeometry x="-0.3124" y="-3" relative="1" as="geometry">
            <mxPoint as="offset" />
          </mxGeometry>
        </mxCell>
        <mxCell id="4yhZJhOrAPvXMS8r5TzF-18" style="edgeStyle=orthogonalEdgeStyle;rounded=0;orthogonalLoop=1;jettySize=auto;html=1;exitX=0;exitY=0.75;exitDx=0;exitDy=0;entryX=1;entryY=0.75;entryDx=0;entryDy=0;fontSize=20;startArrow=none;startFill=0;strokeWidth=5;fillColor=#d5e8d4;strokeColor=#82b366;" edge="1" parent="1" source="wnf2VfuJf94anjGbQvdZ-3" target="wnf2VfuJf94anjGbQvdZ-2">
          <mxGeometry relative="1" as="geometry" />
        </mxCell>
        <mxCell id="4yhZJhOrAPvXMS8r5TzF-19" value="请求数据" style="edgeLabel;html=1;align=center;verticalAlign=middle;resizable=0;points=[];fontSize=20;" vertex="1" connectable="0" parent="4yhZJhOrAPvXMS8r5TzF-18">
          <mxGeometry x="-0.1753" y="3" relative="1" as="geometry">
            <mxPoint as="offset" />
          </mxGeometry>
        </mxCell>
        <mxCell id="4yhZJhOrAPvXMS8r5TzF-26" style="edgeStyle=orthogonalEdgeStyle;rounded=0;orthogonalLoop=1;jettySize=auto;html=1;exitX=1;exitY=0.5;exitDx=0;exitDy=0;entryX=0;entryY=0.5;entryDx=0;entryDy=0;fontSize=20;startArrow=none;startFill=0;strokeWidth=5;fillColor=#f8cecc;strokeColor=#b85450;" edge="1" parent="1" source="wnf2VfuJf94anjGbQvdZ-3" target="GOlorQ2MwcxbbiScanlw-1">
          <mxGeometry relative="1" as="geometry" />
        </mxCell>
        <mxCell id="4yhZJhOrAPvXMS8r5TzF-27" value="响应数据" style="edgeLabel;html=1;align=center;verticalAlign=middle;resizable=0;points=[];fontSize=20;" vertex="1" connectable="0" parent="4yhZJhOrAPvXMS8r5TzF-26">
          <mxGeometry x="0.6342" relative="1" as="geometry">
            <mxPoint as="offset" />
          </mxGeometry>
        </mxCell>
        <mxCell id="4yhZJhOrAPvXMS8r5TzF-28" style="edgeStyle=orthogonalEdgeStyle;rounded=0;orthogonalLoop=1;jettySize=auto;html=1;exitX=0.25;exitY=1;exitDx=0;exitDy=0;fontSize=20;startArrow=none;startFill=0;strokeWidth=5;fillColor=#f5f5f5;strokeColor=#666666;" edge="1" parent="1" source="wnf2VfuJf94anjGbQvdZ-3">
          <mxGeometry relative="1" as="geometry">
            <mxPoint x="700" y="700" as="targetPoint" />
          </mxGeometry>
        </mxCell>
        <mxCell id="4yhZJhOrAPvXMS8r5TzF-29" value="响应包" style="edgeLabel;html=1;align=center;verticalAlign=middle;resizable=0;points=[];fontSize=20;" vertex="1" connectable="0" parent="4yhZJhOrAPvXMS8r5TzF-28">
          <mxGeometry x="-0.2613" y="-4" relative="1" as="geometry">
            <mxPoint as="offset" />
          </mxGeometry>
        </mxCell>
        <mxCell id="wnf2VfuJf94anjGbQvdZ-3" value="&lt;span style=&quot;font-size: 20px&quot;&gt;client&lt;br&gt;&lt;/span&gt;" style="rounded=0;whiteSpace=wrap;html=1;" parent="1" vertex="1">
          <mxGeometry x="650" y="435" width="160" height="115" as="geometry" />
        </mxCell>
        <mxCell id="wnf2VfuJf94anjGbQvdZ-14" style="edgeStyle=orthogonalEdgeStyle;rounded=0;orthogonalLoop=1;jettySize=auto;html=1;entryX=0.5;entryY=1;entryDx=0;entryDy=0;fontSize=20;" parent="1" source="wnf2VfuJf94anjGbQvdZ-9" target="wnf2VfuJf94anjGbQvdZ-11" edge="1">
          <mxGeometry relative="1" as="geometry" />
        </mxCell>
        <mxCell id="wnf2VfuJf94anjGbQvdZ-9" value="&lt;span style=&quot;font-size: 20px&quot;&gt;Controller&lt;br&gt;&lt;/span&gt;" style="rounded=0;whiteSpace=wrap;html=1;" parent="1" vertex="1">
          <mxGeometry x="-140" y="320" width="120" height="60" as="geometry" />
        </mxCell>
        <mxCell id="wnf2VfuJf94anjGbQvdZ-15" style="edgeStyle=orthogonalEdgeStyle;rounded=0;orthogonalLoop=1;jettySize=auto;html=1;entryX=0.5;entryY=1;entryDx=0;entryDy=0;fontSize=20;" parent="1" source="wnf2VfuJf94anjGbQvdZ-11" target="wnf2VfuJf94anjGbQvdZ-12" edge="1">
          <mxGeometry relative="1" as="geometry" />
        </mxCell>
        <mxCell id="wnf2VfuJf94anjGbQvdZ-11" value="&lt;span style=&quot;font-size: 20px&quot;&gt;DAO&lt;br&gt;&lt;/span&gt;" style="rounded=0;whiteSpace=wrap;html=1;" parent="1" vertex="1">
          <mxGeometry x="-140" y="165" width="120" height="60" as="geometry" />
        </mxCell>
        <mxCell id="wnf2VfuJf94anjGbQvdZ-12" value="&lt;span style=&quot;font-size: 20px&quot;&gt;Model&lt;br&gt;&lt;/span&gt;" style="rounded=0;whiteSpace=wrap;html=1;" parent="1" vertex="1">
          <mxGeometry x="-140" y="75" width="120" height="60" as="geometry" />
        </mxCell>
        <mxCell id="wnf2VfuJf94anjGbQvdZ-13" value="&lt;span style=&quot;font-size: 20px&quot;&gt;Tool&lt;br&gt;&lt;/span&gt;" style="rounded=0;whiteSpace=wrap;html=1;" parent="1" vertex="1">
          <mxGeometry x="400" y="70" width="120" height="60" as="geometry" />
        </mxCell>
        <mxCell id="4yhZJhOrAPvXMS8r5TzF-1" style="edgeStyle=orthogonalEdgeStyle;rounded=0;orthogonalLoop=1;jettySize=auto;html=1;entryX=0.5;entryY=1;entryDx=0;entryDy=0;" edge="1" parent="1" source="oRRDKivhvVMNvXGFLit--1" target="wnf2VfuJf94anjGbQvdZ-9">
          <mxGeometry relative="1" as="geometry" />
        </mxCell>
        <mxCell id="4yhZJhOrAPvXMS8r5TzF-22" style="edgeStyle=orthogonalEdgeStyle;rounded=0;orthogonalLoop=1;jettySize=auto;html=1;exitX=1;exitY=0.25;exitDx=0;exitDy=0;entryX=0;entryY=0.25;entryDx=0;entryDy=0;fontSize=20;startArrow=none;startFill=0;strokeWidth=5;fillColor=#f8cecc;strokeColor=#b85450;" edge="1" parent="1" source="oRRDKivhvVMNvXGFLit--1" target="wnf2VfuJf94anjGbQvdZ-2">
          <mxGeometry relative="1" as="geometry" />
        </mxCell>
        <mxCell id="4yhZJhOrAPvXMS8r5TzF-23" value="响应数据" style="edgeLabel;html=1;align=center;verticalAlign=middle;resizable=0;points=[];fontSize=20;" vertex="1" connectable="0" parent="4yhZJhOrAPvXMS8r5TzF-22">
          <mxGeometry x="0.2992" relative="1" as="geometry">
            <mxPoint as="offset" />
          </mxGeometry>
        </mxCell>
        <mxCell id="oRRDKivhvVMNvXGFLit--1" value="&lt;span style=&quot;font-size: 20px&quot;&gt;ControllerManager&lt;br&gt;&lt;/span&gt;" style="rounded=0;whiteSpace=wrap;html=1;" parent="1" vertex="1">
          <mxGeometry x="-180" y="465" width="200" height="60" as="geometry" />
        </mxCell>
        <mxCell id="4yhZJhOrAPvXMS8r5TzF-16" style="edgeStyle=orthogonalEdgeStyle;rounded=0;orthogonalLoop=1;jettySize=auto;html=1;exitX=0;exitY=0.25;exitDx=0;exitDy=0;entryX=1;entryY=0.25;entryDx=0;entryDy=0;fontSize=20;startArrow=none;startFill=0;strokeWidth=5;fillColor=#d5e8d4;strokeColor=#82b366;" edge="1" parent="1" source="GOlorQ2MwcxbbiScanlw-1" target="wnf2VfuJf94anjGbQvdZ-3">
          <mxGeometry relative="1" as="geometry" />
        </mxCell>
        <mxCell id="4yhZJhOrAPvXMS8r5TzF-17" value="请求数据" style="edgeLabel;html=1;align=center;verticalAlign=middle;resizable=0;points=[];fontSize=20;" vertex="1" connectable="0" parent="4yhZJhOrAPvXMS8r5TzF-16">
          <mxGeometry x="0.2747" y="1" relative="1" as="geometry">
            <mxPoint as="offset" />
          </mxGeometry>
        </mxCell>
        <mxCell id="4yhZJhOrAPvXMS8r5TzF-30" style="edgeStyle=orthogonalEdgeStyle;rounded=0;orthogonalLoop=1;jettySize=auto;html=1;exitX=0;exitY=1;exitDx=0;exitDy=0;entryX=1;entryY=1;entryDx=0;entryDy=0;fontSize=20;startArrow=none;startFill=0;strokeWidth=5;fillColor=#f5f5f5;strokeColor=#666666;" edge="1" parent="1" source="GOlorQ2MwcxbbiScanlw-1" target="wnf2VfuJf94anjGbQvdZ-3">
          <mxGeometry relative="1" as="geometry">
            <Array as="points">
              <mxPoint x="1090" y="550" />
            </Array>
          </mxGeometry>
        </mxCell>
        <mxCell id="4yhZJhOrAPvXMS8r5TzF-31" value="响应包" style="edgeLabel;html=1;align=center;verticalAlign=middle;resizable=0;points=[];fontSize=20;" vertex="1" connectable="0" parent="4yhZJhOrAPvXMS8r5TzF-30">
          <mxGeometry x="-0.0915" y="4" relative="1" as="geometry">
            <mxPoint as="offset" />
          </mxGeometry>
        </mxCell>
        <mxCell id="GOlorQ2MwcxbbiScanlw-1" value="&lt;span style=&quot;font-size: 20px&quot;&gt;Message&lt;br&gt;消息的打包&lt;br&gt;消息的解包&lt;br&gt;&lt;/span&gt;" style="rounded=0;whiteSpace=wrap;html=1;" parent="1" vertex="1">
          <mxGeometry x="1090" y="410" width="170" height="160" as="geometry" />
        </mxCell>
        <mxCell id="4yhZJhOrAPvXMS8r5TzF-12" style="edgeStyle=orthogonalEdgeStyle;rounded=0;orthogonalLoop=1;jettySize=auto;html=1;exitX=0.75;exitY=0;exitDx=0;exitDy=0;entryX=0.75;entryY=1;entryDx=0;entryDy=0;fontSize=20;startArrow=none;startFill=0;strokeWidth=5;fillColor=#f5f5f5;strokeColor=#666666;" edge="1" parent="1" source="wnf2VfuJf94anjGbQvdZ-6" target="wnf2VfuJf94anjGbQvdZ-3">
          <mxGeometry relative="1" as="geometry" />
        </mxCell>
        <mxCell id="4yhZJhOrAPvXMS8r5TzF-13" value="请求包" style="edgeLabel;html=1;align=center;verticalAlign=middle;resizable=0;points=[];fontSize=20;" vertex="1" connectable="0" parent="4yhZJhOrAPvXMS8r5TzF-12">
          <mxGeometry x="0.2908" relative="1" as="geometry">
            <mxPoint as="offset" />
          </mxGeometry>
        </mxCell>
        <mxCell id="wnf2VfuJf94anjGbQvdZ-6" value="" style="rounded=0;whiteSpace=wrap;html=1;fontSize=20;shadow=0;dashed=1;" parent="1" vertex="1">
          <mxGeometry x="300" y="700" width="600" height="140" as="geometry" />
        </mxCell>
        <mxCell id="wnf2VfuJf94anjGbQvdZ-1" value="&lt;font style=&quot;font-size: 20px&quot;&gt;client&lt;/font&gt;" style="rounded=0;whiteSpace=wrap;html=1;" parent="1" vertex="1">
          <mxGeometry x="310" y="770" width="120" height="60" as="geometry" />
        </mxCell>
        <mxCell id="wnf2VfuJf94anjGbQvdZ-4" value="&lt;font style=&quot;font-size: 20px&quot;&gt;client&lt;/font&gt;" style="rounded=0;whiteSpace=wrap;html=1;" parent="1" vertex="1">
          <mxGeometry x="310" y="710" width="120" height="60" as="geometry" />
        </mxCell>
        <mxCell id="wnf2VfuJf94anjGbQvdZ-5" value="&lt;font style=&quot;font-size: 20px&quot;&gt;client&lt;/font&gt;" style="rounded=0;whiteSpace=wrap;html=1;" parent="1" vertex="1">
          <mxGeometry x="770" y="770" width="120" height="60" as="geometry" />
        </mxCell>
        <mxCell id="4yhZJhOrAPvXMS8r5TzF-33" value="服务器模块" style="text;html=1;strokeColor=none;fillColor=#E6E6E6;align=center;verticalAlign=middle;whiteSpace=wrap;rounded=0;dashed=1;fontSize=20;" vertex="1" parent="1">
          <mxGeometry x="120" y="320" width="160" height="30" as="geometry" />
        </mxCell>
        <mxCell id="4yhZJhOrAPvXMS8r5TzF-35" value="数据库" style="text;html=1;strokeColor=none;fillColor=#E6E6E6;align=center;verticalAlign=middle;whiteSpace=wrap;rounded=0;dashed=1;fontSize=20;" vertex="1" parent="1">
          <mxGeometry x="120" y="70" width="150" height="30" as="geometry" />
        </mxCell>
        <mxCell id="4yhZJhOrAPvXMS8r5TzF-36" value="客户端集合" style="text;html=1;strokeColor=none;fillColor=#E6E6E6;align=center;verticalAlign=middle;whiteSpace=wrap;rounded=0;dashed=1;fontSize=20;" vertex="1" parent="1">
          <mxGeometry x="560" y="750" width="135" height="30" as="geometry" />
        </mxCell>
      </root>
    </mxGraphModel>
  </diagram>
  <diagram id="3bz6BS0PO8713qqQLpYb" name="服务器端和客户端通讯模型">
    <mxGraphModel dx="1447" dy="750" grid="1" gridSize="10" guides="1" tooltips="1" connect="1" arrows="1" fold="1" page="1" pageScale="1" pageWidth="827" pageHeight="1169" math="0" shadow="0">
      <root>
        <mxCell id="LzF4J6rwbPn0nmqdJshY-0" />
        <mxCell id="LzF4J6rwbPn0nmqdJshY-1" parent="LzF4J6rwbPn0nmqdJshY-0" />
        <mxCell id="3FBiQJbIUup4Juo5UF1U-7" style="edgeStyle=orthogonalEdgeStyle;rounded=0;orthogonalLoop=1;jettySize=auto;html=1;exitX=1;exitY=0.25;exitDx=0;exitDy=0;entryX=0;entryY=0.25;entryDx=0;entryDy=0;fontSize=20;" edge="1" parent="LzF4J6rwbPn0nmqdJshY-1" source="3FBiQJbIUup4Juo5UF1U-0" target="3FBiQJbIUup4Juo5UF1U-1">
          <mxGeometry relative="1" as="geometry" />
        </mxCell>
        <mxCell id="3FBiQJbIUup4Juo5UF1U-9" value="MessageLength|RequestCode|ActionCode|Data" style="edgeLabel;html=1;align=center;verticalAlign=middle;resizable=0;points=[];fontSize=20;" vertex="1" connectable="0" parent="3FBiQJbIUup4Juo5UF1U-7">
          <mxGeometry x="-0.4239" y="5" relative="1" as="geometry">
            <mxPoint x="135" as="offset" />
          </mxGeometry>
        </mxCell>
        <mxCell id="3FBiQJbIUup4Juo5UF1U-0" value="&lt;span style=&quot;font-size: 20px&quot;&gt;Request&lt;br&gt;OnResponse&lt;br&gt;（响应请求和Request一一对应）&lt;br&gt;&lt;/span&gt;" style="rounded=0;whiteSpace=wrap;html=1;" vertex="1" parent="LzF4J6rwbPn0nmqdJshY-1">
          <mxGeometry x="80" y="240" width="120" height="260" as="geometry" />
        </mxCell>
        <mxCell id="3FBiQJbIUup4Juo5UF1U-8" style="edgeStyle=orthogonalEdgeStyle;rounded=0;orthogonalLoop=1;jettySize=auto;html=1;exitX=0;exitY=0.75;exitDx=0;exitDy=0;entryX=1;entryY=0.75;entryDx=0;entryDy=0;fontSize=20;dashed=1;" edge="1" parent="LzF4J6rwbPn0nmqdJshY-1" source="3FBiQJbIUup4Juo5UF1U-1" target="3FBiQJbIUup4Juo5UF1U-0">
          <mxGeometry relative="1" as="geometry" />
        </mxCell>
        <mxCell id="3FBiQJbIUup4Juo5UF1U-12" value="MessageLength|RequestCode|Data" style="edgeLabel;html=1;align=center;verticalAlign=middle;resizable=0;points=[];fontSize=20;" vertex="1" connectable="0" parent="3FBiQJbIUup4Juo5UF1U-8">
          <mxGeometry x="0.199" y="-5" relative="1" as="geometry">
            <mxPoint x="53" as="offset" />
          </mxGeometry>
        </mxCell>
        <mxCell id="3FBiQJbIUup4Juo5UF1U-1" value="&lt;span style=&quot;font-size: 20px&quot;&gt;Controller&lt;br&gt;（包含多个&lt;br&gt;RequestCode&lt;br&gt;ActionCode）&lt;br&gt;&lt;/span&gt;" style="rounded=0;whiteSpace=wrap;html=1;" vertex="1" parent="LzF4J6rwbPn0nmqdJshY-1">
          <mxGeometry x="840" y="240" width="120" height="260" as="geometry" />
        </mxCell>
        <mxCell id="3FBiQJbIUup4Juo5UF1U-6" style="edgeStyle=orthogonalEdgeStyle;rounded=0;orthogonalLoop=1;jettySize=auto;html=1;entryX=0.5;entryY=0;entryDx=0;entryDy=0;fontSize=20;" edge="1" parent="LzF4J6rwbPn0nmqdJshY-1" source="3FBiQJbIUup4Juo5UF1U-3" target="3FBiQJbIUup4Juo5UF1U-0">
          <mxGeometry relative="1" as="geometry" />
        </mxCell>
        <mxCell id="3FBiQJbIUup4Juo5UF1U-3" value="&lt;span style=&quot;font-size: 20px&quot;&gt;Client&lt;br&gt;&lt;/span&gt;" style="rounded=0;whiteSpace=wrap;html=1;" vertex="1" parent="LzF4J6rwbPn0nmqdJshY-1">
          <mxGeometry x="80" y="40" width="120" height="120" as="geometry" />
        </mxCell>
        <mxCell id="3FBiQJbIUup4Juo5UF1U-5" style="edgeStyle=orthogonalEdgeStyle;rounded=0;orthogonalLoop=1;jettySize=auto;html=1;entryX=0.5;entryY=0;entryDx=0;entryDy=0;fontSize=20;" edge="1" parent="LzF4J6rwbPn0nmqdJshY-1" source="3FBiQJbIUup4Juo5UF1U-4" target="3FBiQJbIUup4Juo5UF1U-1">
          <mxGeometry relative="1" as="geometry" />
        </mxCell>
        <mxCell id="3FBiQJbIUup4Juo5UF1U-4" value="&lt;span style=&quot;font-size: 20px&quot;&gt;Server&lt;br&gt;&lt;/span&gt;" style="rounded=0;whiteSpace=wrap;html=1;" vertex="1" parent="LzF4J6rwbPn0nmqdJshY-1">
          <mxGeometry x="840" y="40" width="120" height="120" as="geometry" />
        </mxCell>
      </root>
    </mxGraphModel>
  </diagram>
</mxfile>
